<svg width="47" height="27" viewBox="0 0 47 27" fill="none" xmlns="http://www.w3.org/2000/svg">
<g filter="url(#filter0_d_14713_40)">
<path d="M13.8691 15.3633V18H6.29102V15.3633H13.8691ZM7.51172 3.78125V18H4.08398V3.78125H7.51172ZM12.8926 9.42578V11.9746H6.29102V9.42578H12.8926ZM13.8984 3.78125V6.42773H6.29102V3.78125H13.8984ZM27.9504 3.78125V18H24.5324L19.5031 9.15234V18H16.0754V3.78125H19.5031L24.5324 12.6289V3.78125H27.9504ZM42.9492 10.4023V16.2422C42.7083 16.5091 42.3372 16.7956 41.8359 17.1016C41.3411 17.401 40.7161 17.6582 39.9609 17.873C39.2057 18.0879 38.3171 18.1953 37.2949 18.1953C36.3509 18.1953 35.4948 18.0456 34.7266 17.7461C33.9583 17.4401 33.2975 16.9941 32.7441 16.4082C32.1973 15.8158 31.7741 15.0931 31.4746 14.2402C31.1816 13.3809 31.0352 12.3978 31.0352 11.291V10.5C31.0352 9.39323 31.1849 8.41016 31.4844 7.55078C31.7839 6.69141 32.2038 5.96875 32.7441 5.38281C33.291 4.79036 33.9323 4.34115 34.668 4.03516C35.4102 3.72917 36.224 3.57617 37.1094 3.57617C38.418 3.57617 39.4824 3.78451 40.3027 4.20117C41.123 4.61133 41.7448 5.18099 42.168 5.91016C42.5911 6.63281 42.8483 7.4694 42.9395 8.41992H39.6484C39.5833 7.95117 39.4596 7.55404 39.2773 7.22852C39.1016 6.89648 38.8477 6.64583 38.5156 6.47656C38.1836 6.30078 37.7539 6.21289 37.2266 6.21289C36.8164 6.21289 36.4421 6.30078 36.1035 6.47656C35.7715 6.65234 35.4883 6.91927 35.2539 7.27734C35.0195 7.62891 34.8372 8.07161 34.707 8.60547C34.5833 9.13932 34.5215 9.76432 34.5215 10.4805V11.291C34.5215 12.0007 34.5801 12.6224 34.6973 13.1562C34.821 13.6901 35.0033 14.1361 35.2441 14.4941C35.4915 14.8457 35.804 15.1126 36.1816 15.2949C36.5658 15.4707 37.0182 15.5586 37.5391 15.5586C37.9036 15.5586 38.2161 15.5293 38.4766 15.4707C38.737 15.4056 38.9518 15.3275 39.1211 15.2363C39.2969 15.1387 39.4303 15.0475 39.5215 14.9629V12.7559H37.1387V10.4023H42.9492Z" fill="white"/>
<path d="M13.8691 15.3633H14.8691V14.3633H13.8691V15.3633ZM13.8691 18V19H14.8691V18H13.8691ZM6.29102 18H5.29102V19H6.29102V18ZM6.29102 15.3633V14.3633H5.29102V15.3633H6.29102ZM7.51172 3.78125H8.51172V2.78125H7.51172V3.78125ZM7.51172 18V19H8.51172V18H7.51172ZM4.08398 18H3.08398V19H4.08398V18ZM4.08398 3.78125V2.78125H3.08398V3.78125H4.08398ZM12.8926 9.42578H13.8926V8.42578H12.8926V9.42578ZM12.8926 11.9746V12.9746H13.8926V11.9746H12.8926ZM6.29102 11.9746H5.29102V12.9746H6.29102V11.9746ZM6.29102 9.42578V8.42578H5.29102V9.42578H6.29102ZM13.8984 3.78125H14.8984V2.78125H13.8984V3.78125ZM13.8984 6.42773V7.42773H14.8984V6.42773H13.8984ZM6.29102 6.42773H5.29102V7.42773H6.29102V6.42773ZM6.29102 3.78125V2.78125H5.29102V3.78125H6.29102ZM12.8691 15.3633V18H14.8691V15.3633H12.8691ZM13.8691 17H6.29102V19H13.8691V17ZM7.29102 18V15.3633H5.29102V18H7.29102ZM6.29102 16.3633H13.8691V14.3633H6.29102V16.3633ZM6.51172 3.78125V18H8.51172V3.78125H6.51172ZM7.51172 17H4.08398V19H7.51172V17ZM5.08398 18V3.78125H3.08398V18H5.08398ZM4.08398 4.78125H7.51172V2.78125H4.08398V4.78125ZM11.8926 9.42578V11.9746H13.8926V9.42578H11.8926ZM12.8926 10.9746H6.29102V12.9746H12.8926V10.9746ZM7.29102 11.9746V9.42578H5.29102V11.9746H7.29102ZM6.29102 10.4258H12.8926V8.42578H6.29102V10.4258ZM12.8984 3.78125V6.42773H14.8984V3.78125H12.8984ZM13.8984 5.42773H6.29102V7.42773H13.8984V5.42773ZM7.29102 6.42773V3.78125H5.29102V6.42773H7.29102ZM6.29102 4.78125H13.8984V2.78125H6.29102V4.78125ZM27.9504 3.78125H28.9504V2.78125H27.9504V3.78125ZM27.9504 18V19H28.9504V18H27.9504ZM24.5324 18L23.6631 18.4942L23.9506 19H24.5324V18ZM19.5031 9.15234L20.3725 8.65817L18.5031 5.36954V9.15234H19.5031ZM19.5031 18V19H20.5031V18H19.5031ZM16.0754 18H15.0754V19H16.0754V18ZM16.0754 3.78125V2.78125H15.0754V3.78125H16.0754ZM19.5031 3.78125L20.3725 3.28708L20.085 2.78125H19.5031V3.78125ZM24.5324 12.6289L23.6631 13.1231L25.5324 16.4117V12.6289H24.5324ZM24.5324 3.78125V2.78125H23.5324V3.78125H24.5324ZM26.9504 3.78125V18H28.9504V3.78125H26.9504ZM27.9504 17H24.5324V19H27.9504V17ZM25.4018 17.5058L20.3725 8.65817L18.6338 9.64652L23.6631 18.4942L25.4018 17.5058ZM18.5031 9.15234V18H20.5031V9.15234H18.5031ZM19.5031 17H16.0754V19H19.5031V17ZM17.0754 18V3.78125H15.0754V18H17.0754ZM16.0754 4.78125H19.5031V2.78125H16.0754V4.78125ZM18.6338 4.27542L23.6631 13.1231L25.4018 12.1347L20.3725 3.28708L18.6338 4.27542ZM25.5324 12.6289V3.78125H23.5324V12.6289H25.5324ZM24.5324 4.78125H27.9504V2.78125H24.5324V4.78125ZM42.9492 10.4023H43.9492V9.40234H42.9492V10.4023ZM42.9492 16.2422L43.6916 16.9122L43.9492 16.6267V16.2422H42.9492ZM41.8359 17.1016L42.3537 17.9571L42.3569 17.9551L41.8359 17.1016ZM39.9609 17.873L40.2346 18.8349L39.9609 17.873ZM34.7266 17.7461L34.3565 18.6751L34.3634 18.6778L34.7266 17.7461ZM32.7441 16.4082L32.0093 17.0865L32.0171 17.0948L32.7441 16.4082ZM31.4746 14.2402L30.5281 14.5629L30.5311 14.5715L31.4746 14.2402ZM32.7441 5.38281L32.0093 4.70453L32.009 4.70487L32.7441 5.38281ZM34.668 4.03516L34.2868 3.11064L34.2839 3.11184L34.668 4.03516ZM40.3027 4.20117L39.8499 5.09277L39.8555 5.0956L40.3027 4.20117ZM42.168 5.91016L41.3031 6.41211L41.305 6.41548L42.168 5.91016ZM42.9395 8.41992V9.41992H44.0399L43.9349 8.32447L42.9395 8.41992ZM39.6484 8.41992L38.6579 8.55749L38.7777 9.41992H39.6484V8.41992ZM39.2773 7.22852L38.3936 7.6964L38.3991 7.70683L38.4048 7.71712L39.2773 7.22852ZM38.5156 6.47656L38.0477 7.36035L38.0546 7.36396L38.0614 7.36747L38.5156 6.47656ZM36.1035 6.47656L35.6427 5.58904L35.6356 5.59277L36.1035 6.47656ZM35.2539 7.27734L36.086 7.83206L36.0906 7.825L35.2539 7.27734ZM34.707 8.60547L33.7354 8.3685L33.7328 8.37974L34.707 8.60547ZM34.6973 13.1562L33.7205 13.3707L33.7231 13.382L34.6973 13.1562ZM35.2441 14.4941L34.4144 15.0523L34.4203 15.061L34.4263 15.0696L35.2441 14.4941ZM36.1816 15.2949L35.7469 16.1955L35.7562 16.1999L35.7655 16.2042L36.1816 15.2949ZM38.4766 15.4707L38.6961 16.4463L38.7076 16.4437L38.7191 16.4408L38.4766 15.4707ZM39.1211 15.2363L39.5952 16.1169L39.6067 16.1105L39.1211 15.2363ZM39.5215 14.9629L40.2019 15.6957L40.5215 15.399V14.9629H39.5215ZM39.5215 12.7559H40.5215V11.7559H39.5215V12.7559ZM37.1387 12.7559H36.1387V13.7559H37.1387V12.7559ZM37.1387 10.4023V9.40234H36.1387V10.4023H37.1387ZM41.9492 10.4023V16.2422H43.9492V10.4023H41.9492ZM42.2068 15.5722C42.0582 15.7369 41.779 15.9648 41.3149 16.248L42.3569 17.9551C42.8955 17.6264 43.3584 17.2814 43.6916 16.9122L42.2068 15.5722ZM41.3181 16.2461C40.9213 16.4863 40.3851 16.7127 39.6873 16.9112L40.2346 18.8349C41.0472 18.6037 41.761 18.3158 42.3537 17.9571L41.3181 16.2461ZM39.6873 16.9112C39.0432 17.0944 38.2508 17.1953 37.2949 17.1953V19.1953C38.3834 19.1953 39.3682 19.0813 40.2346 18.8349L39.6873 16.9112ZM37.2949 17.1953C36.4574 17.1953 35.7267 17.0627 35.0898 16.8144L34.3634 18.6778C35.2629 19.0285 36.2445 19.1953 37.2949 19.1953V17.1953ZM35.0966 16.8171C34.46 16.5635 33.922 16.1989 33.4712 15.7216L32.0171 17.0948C32.6731 17.7894 33.4567 18.3167 34.3565 18.6751L35.0966 16.8171ZM33.4789 15.7299C33.0352 15.2492 32.6779 14.6487 32.4181 13.9089L30.5311 14.5715C30.8703 15.5375 31.3594 16.3824 32.0093 17.0865L33.4789 15.7299ZM32.4211 13.9176C32.1704 13.182 32.0352 12.3112 32.0352 11.291H30.0352C30.0352 12.4844 30.1929 13.5797 30.5281 14.5629L32.4211 13.9176ZM32.0352 11.291V10.5H30.0352V11.291H32.0352ZM32.0352 10.5C32.0352 9.48186 32.1731 8.61339 32.4287 7.87986L30.5401 7.22171C30.1967 8.20693 30.0352 9.3046 30.0352 10.5H32.0352ZM32.4287 7.87986C32.6894 7.13161 33.0441 6.53265 33.4793 6.06075L32.009 4.70487C31.3635 5.40485 30.8783 6.2512 30.5401 7.22171L32.4287 7.87986ZM33.4789 6.06109C33.9291 5.57337 34.4512 5.20837 35.052 4.95847L34.2839 3.11184C33.4134 3.47392 32.6529 4.00736 32.0093 4.70453L33.4789 6.06109ZM35.0491 4.95967C35.6585 4.70842 36.3412 4.57617 37.1094 4.57617V2.57617C36.1067 2.57617 35.1618 2.74992 34.2868 3.11065L35.0491 4.95967ZM37.1094 4.57617C38.3227 4.57617 39.2164 4.77099 39.8499 5.09275L40.7556 3.30959C39.7484 2.79802 38.5132 2.57617 37.1094 2.57617V4.57617ZM39.8555 5.0956C40.5173 5.42648 40.9865 5.86655 41.3031 6.41211L43.0329 5.40821C42.5031 4.49543 41.7288 3.79617 40.7499 3.30674L39.8555 5.0956ZM41.305 6.41548C41.6452 6.99629 41.8648 7.6892 41.944 8.51537L43.9349 8.32447C43.8318 7.24961 43.5371 6.26933 43.0309 5.40484L41.305 6.41548ZM42.9395 7.41992H39.6484V9.41992H42.9395V7.41992ZM40.6389 8.28235C40.5611 7.722 40.4069 7.19891 40.1498 6.73991L38.4048 7.71712C38.5124 7.90916 38.6056 8.18034 38.6579 8.55749L40.6389 8.28235ZM40.1611 6.76063C39.8899 6.24832 39.4867 5.84918 38.9698 5.58566L38.0614 7.36747C38.2086 7.44248 38.3132 7.54465 38.3936 7.6964L40.1611 6.76063ZM38.9835 5.59277C38.461 5.31614 37.855 5.21289 37.2266 5.21289V7.21289C37.6529 7.21289 37.9062 7.28543 38.0477 7.36035L38.9835 5.59277ZM37.2266 5.21289C36.6684 5.21289 36.1342 5.33387 35.6427 5.58907L36.5643 7.36406C36.7499 7.26769 36.9644 7.21289 37.2266 7.21289V5.21289ZM35.6356 5.59277C35.1345 5.85808 34.7311 6.25013 34.4172 6.72968L36.0906 7.825C36.2455 7.58841 36.4085 7.44661 36.5714 7.36035L35.6356 5.59277ZM34.4219 6.72264C34.1067 7.19541 33.8855 7.75366 33.7355 8.36851L35.6786 8.84242C35.789 8.38956 35.9324 8.0624 36.086 7.83204L34.4219 6.72264ZM33.7328 8.37974C33.5877 9.00617 33.5215 9.71011 33.5215 10.4805H35.5215C35.5215 9.81854 35.579 9.27247 35.6812 8.8312L33.7328 8.37974ZM33.5215 10.4805V11.291H35.5215V10.4805H33.5215ZM33.5215 11.291C33.5215 12.0526 33.5841 12.7491 33.7205 13.3707L35.674 12.9418C35.5761 12.4957 35.5215 11.9487 35.5215 11.291H33.5215ZM33.7231 13.382C33.8672 14.0039 34.0899 14.57 34.4144 15.0523L36.0739 13.936C35.9166 13.7022 35.7748 13.3763 35.6715 12.9305L33.7231 13.382ZM34.4263 15.0696C34.7691 15.5567 35.212 15.9373 35.7469 16.1955L36.6164 14.3944C36.396 14.288 36.214 14.1347 36.0619 13.9186L34.4263 15.0696ZM35.7655 16.2042C36.307 16.452 36.9073 16.5586 37.5391 16.5586V14.5586C37.1292 14.5586 36.8246 14.4894 36.5978 14.3856L35.7655 16.2042ZM37.5391 16.5586C37.9527 16.5586 38.3429 16.5258 38.6961 16.4463L38.2571 14.4951C38.0894 14.5328 37.8546 14.5586 37.5391 14.5586V16.5586ZM38.7191 16.4408C39.0309 16.3629 39.3303 16.2594 39.5952 16.1168L38.647 14.3559C38.5733 14.3955 38.443 14.4483 38.234 14.5006L38.7191 16.4408ZM39.6067 16.1105C39.8154 15.9945 40.027 15.8581 40.2019 15.6957L38.841 14.2301C38.8416 14.2296 38.8379 14.233 38.8289 14.2401C38.8199 14.2471 38.8069 14.2568 38.7891 14.2689C38.7529 14.2936 38.7027 14.3248 38.6355 14.3622L39.6067 16.1105ZM40.5215 14.9629V12.7559H38.5215V14.9629H40.5215ZM39.5215 11.7559H37.1387V13.7559H39.5215V11.7559ZM38.1387 12.7559V10.4023H36.1387V12.7559H38.1387ZM37.1387 11.4023H42.9492V9.40234H37.1387V11.4023Z" fill="black"/>
</g>
<defs>
<filter id="filter0_d_14713_40" x="0.0839844" y="3.57617" width="46.8652" height="22.6191" filterUnits="userSpaceOnUse" color-interpolation-filters="sRGB">
<feFlood flood-opacity="0" result="BackgroundImageFix"/>
<feColorMatrix in="SourceAlpha" type="matrix" values="0 0 0 0 0 0 0 0 0 0 0 0 0 0 0 0 0 0 127 0" result="hardAlpha"/>
<feOffset dy="4"/>
<feGaussianBlur stdDeviation="2"/>
<feComposite in2="hardAlpha" operator="out"/>
<feColorMatrix type="matrix" values="0 0 0 0 0 0 0 0 0 0 0 0 0 0 0 0 0 0 0.25 0"/>
<feBlend mode="normal" in2="BackgroundImageFix" result="effect1_dropShadow_14713_40"/>
<feBlend mode="normal" in="SourceGraphic" in2="effect1_dropShadow_14713_40" result="shape"/>
</filter>
</defs>
</svg>
